# xmcd CD database file
#
# Track frame offsets:
#	150
#	13012
#	40927
#	54945
#	71110
#	94385
#	107500
#	127072
#	142785
#	164120
#
# Disc length: 2572 seconds
#
# Revision: 3
# Processed by: cddbd v1.5.2PL0 Copyright (c) Steve Scherf et al.
# Submitted via: CDex 1.70beta2
#
DISCID=8b0a0a0a
DTITLE=Old And In The Way - Old And In The Way
DYEAR=1975
DGENRE=Bluegrass
TTITLE0=Pig In A Pen
TTITLE1=Midnight Moonlight
TTITLE2=Old And In The Way
TTITLE3=Knockin' On Your Door
TTITLE4=The Hobo Song
TTITLE5=Panama Red
TTITLE6=Wild Horses
TTITLE7=Kissimmee Kid
TTITLE8=White Dove
TTITLE9=Land Of The Navajo
EXTD=Jerry Garcia, David Grisman, Peter Rowan, Vassar Clements and John Kahn\n\nRecorded live at the Burning House San Francisco, Oct 8, 1973 YEAR: 1975
EXTT0=
EXTT1=
EXTT2=
EXTT3=
EXTT4=
EXTT5=
EXTT6=
EXTT7=
EXTT8=
EXTT9=
PLAYORDER=
